<svg width="148" height="40" viewBox="0 0 148 40" fill="none" xmlns="http://www.w3.org/2000/svg">
<g clip-path="url(#clip0_43_806)">
<path d="M10.2067 20.8249C8.81627 19.6039 8.11072 17.56 8.11072 14.7488C8.11072 11.9377 8.81421 9.90404 10.2025 8.69542C11.6281 7.45586 13.9082 6.8268 16.9767 6.8268H34.9134L38.8673 0.0824456L16.5608 -5.41655e-05C11.2826 -0.0248041 7.18171 1.22094 4.33882 3.70418C1.46076 6.22043 0 9.93498 0 14.7488C0 19.5627 1.46076 23.3123 4.34089 25.8141C7.18378 28.2829 11.295 29.5348 16.5566 29.5348H31.6587L34.9134 22.708H16.9767C13.9082 22.708 11.6302 22.0727 10.2046 20.8229L10.2067 20.8249Z" fill="#163350"/>
<path d="M100.355 0.191813H76.4844V29.3452H84.4813V19.307H100.355C103.415 19.307 105.851 18.5068 107.589 16.9269C109.353 15.3243 110.249 12.9091 110.249 9.74941C110.249 6.58967 109.353 4.17449 107.589 2.57193C105.849 0.99206 103.415 0.191813 100.355 0.191813ZM84.4813 7.0166H99.6268C100.504 7.0166 101.16 7.21048 101.58 7.59204C101.971 7.94885 102.176 8.69341 102.176 9.74734C102.176 10.8013 101.967 11.5232 101.572 11.8923C101.154 12.2821 100.5 12.4801 99.6289 12.4801L84.4813 12.4451V7.0166Z" fill="#163350"/>
<path d="M141.489 18.8017C143.208 18.2964 144.598 17.4054 145.635 16.1411C146.918 14.5777 147.57 12.4265 147.57 9.74941C147.57 6.58967 146.674 4.17449 144.909 2.57193C143.169 0.99206 140.736 0.191813 137.675 0.191813H113.805V29.3452H121.802V7.0166H136.947C137.824 7.0166 138.48 7.21048 138.9 7.59204C139.291 7.94885 139.496 8.69341 139.496 9.74734C139.496 10.8013 139.287 11.5232 138.892 11.8923C138.474 12.2821 137.82 12.4801 136.949 12.4801L128.729 12.4471L132.97 19.3214L138.822 29.3452H148.002L141.489 18.8017Z" fill="#163350"/>
<path d="M49.9355 17.5889C49.9355 17.5889 58.3172 12.6658 71.4682 15.2913L58.5097 24.1539L59.7801 20.0639C59.7801 20.0639 50.8334 21.5015 44.6387 29.3472L49.9355 17.591V17.5889Z" fill="#B19D5C"/>
<path d="M67.9704 18.3603L61.3184 22.9081L64.2192 29.3452H72.932L67.9704 18.3603Z" fill="#163350"/>
<path d="M59.7634 0.191813H49.0974L35.9258 29.3452H44.6386L54.4294 7.61473L57.5309 14.4993C59.8979 14.0745 62.747 13.829 66.0099 14.0208L59.7634 0.191813Z" fill="#163350"/>
<path d="M2.27256 35.3556C2.54361 35.1885 2.85811 35.106 3.21192 35.106C3.56573 35.106 3.88022 35.1988 4.13265 35.3824C4.38714 35.568 4.56715 35.8031 4.67267 36.0919L5.60168 35.6526C5.50444 35.3845 5.34512 35.137 5.12166 34.9121C4.8982 34.6873 4.62509 34.5058 4.30231 34.3697C3.97954 34.2336 3.61538 34.1655 3.20985 34.1655C2.80431 34.1655 2.42153 34.2377 2.08014 34.3821C1.73667 34.5265 1.43873 34.7286 1.18217 34.9885C0.925602 35.2483 0.726972 35.5577 0.584207 35.9145C0.441442 36.2713 0.371094 36.6591 0.371094 37.0798C0.371094 37.5006 0.443511 37.8863 0.588345 38.241C0.73318 38.5958 0.93181 38.9031 1.1863 39.1671C1.4408 39.4311 1.73874 39.6353 2.08428 39.7817C2.42981 39.9281 2.80431 40.0024 3.21192 40.0024C3.61952 40.0024 3.98161 39.9343 4.30438 39.7982C4.62715 39.6621 4.90027 39.4806 5.12373 39.2558C5.34719 39.0309 5.50651 38.7834 5.60375 38.5153L4.67474 38.0822C4.56922 38.3648 4.38714 38.5999 4.13472 38.7834C3.88022 38.9691 3.574 39.0598 3.21399 39.0598C2.85397 39.0598 2.54568 38.9773 2.27463 38.8103C2.00358 38.6432 1.79254 38.4122 1.64357 38.1152C1.49459 37.8182 1.41804 37.4738 1.41804 37.0798C1.41804 36.6859 1.49253 36.3414 1.64357 36.0486C1.79254 35.7557 2.00358 35.5247 2.27463 35.3576L2.27256 35.3556Z" fill="#B19D5C"/>
<path d="M8.04671 34.256H7.00391V39.9113H8.04671V34.256Z" fill="#B19D5C"/>
<path d="M9.24414 35.1655H10.7132V39.9093H11.7581V35.1655H13.2043V34.256H9.24414V35.1655Z" fill="#B19D5C"/>
<path d="M18.2077 37.0362C18.3918 36.7598 18.4849 36.4298 18.4849 36.0462C18.4849 35.6626 18.4022 35.3367 18.2346 35.0706C18.067 34.8046 17.8353 34.6025 17.5373 34.4643C17.2394 34.3261 16.898 34.256 16.5131 34.256H14.3965V39.9113H15.4393V37.8241H16.4076L17.5849 39.9113H18.7581L17.4566 37.6488C17.7711 37.5168 18.0215 37.3146 18.2056 37.0383L18.2077 37.0362ZM17.3366 36.4938C17.2601 36.6258 17.1545 36.7289 17.0159 36.8011C16.8794 36.8753 16.7159 36.9104 16.5297 36.9104H15.4414V35.1655H16.5297C16.718 35.1655 16.8794 35.2026 17.0159 35.2748C17.1525 35.3491 17.2601 35.4501 17.3366 35.578C17.4132 35.7059 17.4504 35.8606 17.4504 36.0379C17.4504 36.2153 17.4132 36.3618 17.3366 36.4938Z" fill="#B19D5C"/>
<path d="M21.5024 34.256L19.5451 39.9113H20.6645L21.0762 38.7048H23.2694L23.6729 39.9113H24.8005L22.8432 34.256H21.5024ZM21.3721 37.7849L22.1707 35.4089L22.9632 37.7849H21.3721Z" fill="#B19D5C"/>
<path d="M29.4202 34.256L27.4629 39.9113H28.5823L28.994 38.7048H31.1872L31.5907 39.9113H32.7183L30.761 34.256H29.4202ZM29.2899 37.7849L30.0885 35.4089L30.881 37.7849H29.2899Z" fill="#B19D5C"/>
<path d="M36.3562 37.6323H37.9866V37.6549C37.9866 37.9437 37.9122 38.1933 37.7632 38.4016C37.6142 38.6119 37.4177 38.7728 37.1735 38.8863C36.9294 38.9997 36.6666 39.0574 36.3811 39.0574C36.0252 39.0574 35.7107 38.9749 35.4376 38.8079C35.1624 38.6408 34.9493 38.4098 34.7941 38.1128C34.6389 37.8158 34.5623 37.4714 34.5623 37.0774C34.5623 36.6835 34.6368 36.3391 34.7879 36.0462C34.9368 35.7533 35.1479 35.5223 35.4189 35.3553C35.69 35.1882 36.0045 35.1057 36.3583 35.1057C36.7121 35.1057 37.0266 35.1985 37.2832 35.3821C37.5397 35.5677 37.7218 35.8028 37.8273 36.0916L38.7481 35.6523C38.6508 35.3841 38.4915 35.1366 38.268 34.9118C38.0446 34.687 37.7715 34.5055 37.4487 34.3694C37.1259 34.2333 36.7618 34.1652 36.3562 34.1652C35.9507 34.1652 35.5679 34.2374 35.2265 34.3818C34.8831 34.5261 34.5851 34.7283 34.3285 34.9881C34.072 35.248 33.8733 35.5574 33.7306 35.9142C33.5878 36.271 33.5175 36.6588 33.5175 37.0795C33.5175 37.5003 33.5899 37.8859 33.7347 38.2407C33.8796 38.5954 34.0823 38.9028 34.343 39.1667C34.6037 39.4307 34.9079 39.6349 35.2534 39.7814C35.5989 39.9278 35.9734 40.0021 36.3811 40.0021C36.7162 40.0021 37.0411 39.9464 37.3556 39.835C37.6701 39.7236 37.9535 39.5545 38.2039 39.3256C38.4543 39.0987 38.655 38.8161 38.8019 38.4841C38.9488 38.152 39.0232 37.7663 39.0232 37.3311V36.7619H36.3583V37.6343L36.3562 37.6323Z" fill="#B19D5C"/>
<path d="M43.8108 37.8385C43.8108 38.0716 43.7591 38.2819 43.6556 38.4676C43.5522 38.6532 43.4094 38.7996 43.2294 38.9048C43.0494 39.0079 42.8404 39.0595 42.6004 39.0595C42.3604 39.0595 42.1597 39.0079 41.9755 38.9048C41.7935 38.8017 41.6486 38.6553 41.5452 38.4676C41.4417 38.2799 41.39 38.0695 41.39 37.8385V34.256H40.3555V37.8921C40.3555 38.2964 40.4527 38.6594 40.6451 38.977C40.8376 39.2967 41.1024 39.5463 41.4417 39.7277C41.779 39.9092 42.1659 40 42.6025 40C43.039 40 43.426 39.9092 43.7632 39.7277C44.1005 39.5463 44.3653 39.2946 44.5598 38.977C44.7522 38.6573 44.8495 38.2964 44.8495 37.8921V34.256H43.8149V37.8385H43.8108Z" fill="#B19D5C"/>
<path d="M49.9627 37.8921L47.2605 34.256H46.4453V39.9093H47.4881V36.2133L50.1779 39.9093H50.9993V34.256H49.9627V37.8921Z" fill="#B19D5C"/>
<path d="M55.3309 37.6323H56.9614V37.6549C56.9614 37.9437 56.8869 38.1933 56.7379 38.4016C56.5889 38.6119 56.3924 38.7728 56.1482 38.8863C55.9041 38.9997 55.6413 39.0574 55.3558 39.0574C54.9999 39.0574 54.6854 38.9749 54.4123 38.8079C54.1371 38.6408 53.924 38.4098 53.7688 38.1128C53.6136 37.8158 53.5371 37.4714 53.5371 37.0774C53.5371 36.6835 53.6115 36.3391 53.7626 36.0462C53.9116 35.7533 54.1226 35.5223 54.3937 35.3553C54.6647 35.1882 54.9792 35.1057 55.333 35.1057C55.6868 35.1057 56.0013 35.1985 56.2579 35.3821C56.5144 35.5677 56.6965 35.8028 56.802 36.0916L57.7228 35.6523C57.6255 35.3841 57.4662 35.1366 57.2428 34.9118C57.0193 34.687 56.7462 34.5055 56.4234 34.3694C56.1006 34.2333 55.7365 34.1652 55.3309 34.1652C54.9254 34.1652 54.5426 34.2374 54.2012 34.3818C53.8578 34.5261 53.5598 34.7283 53.3033 34.9881C53.0467 35.248 52.8481 35.5574 52.7053 35.9142C52.5625 36.271 52.4922 36.6588 52.4922 37.0795C52.4922 37.5003 52.5646 37.8859 52.7094 38.2407C52.8543 38.5954 53.057 38.9028 53.3177 39.1667C53.5784 39.4307 53.8826 39.6349 54.2281 39.7814C54.5737 39.9278 54.9482 40.0021 55.3558 40.0021C55.691 40.0021 56.0158 39.9464 56.3303 39.835C56.6448 39.7236 56.9283 39.5545 57.1786 39.3256C57.429 39.0987 57.6297 38.8161 57.7766 38.4841C57.9235 38.152 57.998 37.7663 57.998 37.3311V36.7619H55.333V37.6343L55.3309 37.6323Z" fill="#B19D5C"/>
<path d="M64.4558 34.4643C64.1599 34.3261 63.8185 34.256 63.4316 34.256H61.3066V39.9113H62.3494V37.8241H63.4316C63.8164 37.8241 64.1578 37.7539 64.4516 37.6158C64.7454 37.4776 64.9772 37.2734 65.1489 37.0094C65.3186 36.7433 65.4034 36.4236 65.4034 36.0483C65.4034 35.6729 65.3186 35.3388 65.153 35.0727C64.9854 34.8066 64.7537 34.6045 64.4558 34.4663V34.4643ZM64.2509 36.4938C64.1723 36.6258 64.0647 36.7289 63.9281 36.8011C63.7916 36.8753 63.6323 36.9104 63.4481 36.9104H62.3515V35.1655H63.4481C63.6302 35.1655 63.7916 35.2026 63.9281 35.2748C64.0647 35.3491 64.1723 35.4501 64.2509 35.578C64.3295 35.708 64.3689 35.8606 64.3689 36.0379C64.3689 36.2153 64.3295 36.3618 64.2509 36.4938Z" fill="#B19D5C"/>
<path d="M70.6237 37.0362C70.8079 36.7598 70.901 36.4298 70.901 36.0462C70.901 35.6626 70.8182 35.3367 70.6506 35.0706C70.483 34.8046 70.2513 34.6025 69.9533 34.4643C69.6554 34.3261 69.314 34.256 68.9292 34.256H66.8125V39.9113H67.8553V37.8241H68.8236L70.0009 39.9113H71.1741L69.8726 37.6488C70.1871 37.5168 70.4375 37.3146 70.6216 37.0383L70.6237 37.0362ZM69.7526 36.4938C69.6761 36.6258 69.5706 36.7289 69.4319 36.8011C69.2954 36.8753 69.1319 36.9104 68.9457 36.9104H67.8574V35.1655H68.9457C69.134 35.1655 69.2954 35.2026 69.4319 35.2748C69.5685 35.3491 69.6761 35.4501 69.7526 35.578C69.8292 35.7059 69.8664 35.8606 69.8664 36.0379C69.8664 36.2153 69.8292 36.3618 69.7526 36.4938Z" fill="#B19D5C"/>
<path d="M73.9183 34.256L71.9609 39.9113H73.0803L73.492 38.7048H75.6852L76.0887 39.9113H77.2164L75.259 34.256H73.9183ZM73.7879 37.7849L74.5866 35.4089L75.379 37.7849H73.7879Z" fill="#B19D5C"/>
<path d="M77.5723 35.1655H79.0413V39.9093H80.0841V35.1655H81.5324V34.256H77.5723V35.1655Z" fill="#B19D5C"/>
<path d="M83.846 34.256L81.8887 39.9113H83.008L83.4198 38.7048H85.613L86.0165 39.9113H87.1441L85.1868 34.256H83.846ZM83.7177 37.7849L84.5164 35.4089L85.3088 37.7849H83.7177Z" fill="#B19D5C"/>
<path d="M91.2222 36.8093L89.3352 34.256H88.3379V39.9093H89.3828V35.9967L91.1415 38.3913H91.2635L93.014 36.0668V39.9093H94.0568V34.256H93.0678L91.2222 36.8093Z" fill="#B19D5C"/>
<path d="M97.2094 34.256L95.2521 39.9113H96.3714L96.7832 38.7048H98.9764L99.3799 39.9113H100.507L98.5502 34.256H97.2094ZM97.0791 37.7849L97.8777 35.4089L98.6702 37.7849H97.0791Z" fill="#B19D5C"/>
<path d="M107.438 37.0362C107.622 36.7598 107.715 36.4298 107.715 36.0462C107.715 35.6626 107.633 35.3367 107.465 35.0706C107.297 34.8046 107.066 34.6025 106.768 34.4643C106.47 34.3261 106.128 34.256 105.744 34.256H103.627V39.9113H104.67V37.8241H105.638L106.815 39.9113H107.989L106.687 37.6488C107.002 37.5168 107.252 37.3146 107.436 37.0383L107.438 37.0362ZM106.565 36.4938C106.488 36.6258 106.383 36.7289 106.244 36.8011C106.108 36.8753 105.944 36.9104 105.758 36.9104H104.67V35.1655H105.758C105.946 35.1655 106.108 35.2026 106.244 35.2748C106.381 35.3491 106.488 35.4501 106.565 35.578C106.642 35.7059 106.679 35.8606 106.679 36.0379C106.679 36.2153 106.642 36.3618 106.565 36.4938Z" fill="#B19D5C"/>
<path d="M109.231 39.9093H113.007V38.9997H110.273V37.5353H112.856V36.6154H110.273V35.1655H113.007V34.256H109.231V39.9093Z" fill="#B19D5C"/>
<path d="M117.214 36.8093L115.329 34.256H114.332V39.9093H115.375V35.9967L117.134 38.3913H117.256L119.006 36.0668V39.9093H120.049V34.256H119.06L117.214 36.8093Z" fill="#B19D5C"/>
<path d="M122.746 34.256H121.703V39.9113H122.746V34.256Z" fill="#B19D5C"/>
<path d="M123.941 35.1655H125.41V39.9093H126.453V35.1655H127.9V34.256H123.941V35.1655Z" fill="#B19D5C"/>
<path d="M130.215 34.256L128.258 39.9113H129.377L129.789 38.7048H131.982L132.386 39.9113H133.513L131.556 34.256H130.215ZM130.085 37.7849L130.883 35.4089L131.676 37.7849H130.085Z" fill="#B19D5C"/>
<path d="M138.224 37.8921L135.522 34.256H134.707V39.9093H135.75V36.2133L138.438 39.9093H139.261V34.256H138.224V37.8921Z" fill="#B19D5C"/>
<path d="M143.571 36.7825L142.528 36.4566C142.319 36.3906 142.166 36.2978 142.063 36.1803C141.961 36.0606 141.909 35.9225 141.909 35.7657C141.909 35.6296 141.947 35.5079 142.019 35.4006C142.094 35.2934 142.195 35.213 142.327 35.1531C142.46 35.0954 142.611 35.0665 142.785 35.0665C143.074 35.0665 143.331 35.1449 143.558 35.3016C143.784 35.4584 143.949 35.677 144.057 35.9534L144.918 35.5739C144.816 35.2913 144.663 35.0438 144.456 34.8335C144.252 34.6231 144.005 34.4581 143.722 34.3405C143.438 34.2209 143.126 34.1631 142.785 34.1631C142.414 34.1631 142.085 34.2333 141.798 34.3715C141.51 34.5096 141.287 34.7035 141.123 34.951C140.96 35.1985 140.879 35.4852 140.879 35.809C140.879 36.1844 140.993 36.5061 141.218 36.7763C141.444 37.0465 141.779 37.2507 142.22 37.3868L143.308 37.7354C143.507 37.8014 143.654 37.888 143.753 37.9932C143.852 38.0984 143.902 38.2366 143.902 38.4036C143.902 38.5459 143.865 38.6676 143.792 38.7687C143.718 38.8698 143.614 38.9502 143.48 39.0079C143.345 39.0657 143.186 39.0946 143.004 39.0946C142.679 39.0946 142.387 39.0018 142.129 38.8182C141.87 38.6326 141.671 38.3789 141.535 38.0551L140.666 38.4263C140.773 38.7398 140.937 39.0141 141.156 39.2493C141.378 39.4844 141.64 39.6679 141.949 39.7999C142.255 39.9319 142.586 39.9979 142.942 39.9979C143.337 39.9979 143.683 39.9278 143.976 39.7855C144.27 39.6432 144.502 39.4493 144.67 39.2018C144.837 38.9543 144.92 38.6676 144.92 38.3438C144.92 37.9643 144.806 37.6446 144.581 37.3868C144.355 37.129 144.016 36.9269 143.565 36.7804L143.571 36.7825Z" fill="#B19D5C"/>
<path d="M147.461 34.256H146.418V39.9113H147.461V34.256Z" fill="#B19D5C"/>
</g>
<defs>
<clipPath id="clip0_43_806">
<rect width="148" height="40" fill="white"/>
</clipPath>
</defs>
</svg>
