<svg width="192" height="52" viewBox="0 0 192 52" fill="none" xmlns="http://www.w3.org/2000/svg">
<g clip-path="url(#clip0_43_700)">
<path d="M13.2411 27.0725C11.4373 25.4852 10.522 22.8281 10.522 19.1735C10.522 15.519 11.4346 12.8753 13.2357 11.3041C15.0851 9.69267 18.0431 8.87489 22.0238 8.87489H45.293L50.4225 0.107232L21.4842 -1.81537e-05C14.6369 -0.0321931 9.31682 1.58728 5.62874 4.81549C1.89504 8.08661 0 12.9155 0 19.1735C0 25.4316 1.89504 30.3061 5.63143 33.5584C9.3195 36.7678 14.653 38.3954 21.4789 38.3954H41.0708L45.293 29.5205H22.0238C18.0431 29.5205 15.0878 28.6946 13.2384 27.0698L13.2411 27.0725Z" fill="white"/>
<path d="M130.191 0.249268H99.2237V38.1486H109.598V25.099H130.191C134.161 25.099 137.32 24.0587 139.575 22.0049C141.865 19.9215 143.027 16.7818 143.027 12.6741C143.027 8.56648 141.865 5.42674 139.575 3.34342C137.318 1.28959 134.161 0.249268 130.191 0.249268ZM109.598 9.1215H129.246C130.384 9.1215 131.235 9.37353 131.78 9.86956C132.288 10.3334 132.553 11.3013 132.553 12.6715C132.553 14.0416 132.282 14.98 131.769 15.4599C131.227 15.9667 130.379 16.2241 129.249 16.2241L109.598 16.1785V9.1215Z" fill="white"/>
<path d="M183.553 24.4421C185.783 23.7852 187.587 22.6269 188.932 20.9833C190.596 18.9509 191.442 16.1544 191.442 12.6741C191.442 8.56648 190.279 5.42674 187.99 3.34342C185.732 1.28959 182.576 0.249268 178.606 0.249268H147.638V38.1486H158.013V9.1215H177.661C178.799 9.1215 179.65 9.37353 180.195 9.86956C180.702 10.3334 180.968 11.3013 180.968 12.6715C180.968 14.0416 180.697 14.98 180.184 15.4599C179.642 15.9667 178.794 16.2241 177.664 16.2241L166.999 16.1812L172.502 25.1178L180.093 38.1486H192.003L183.553 24.4421Z" fill="white"/>
<path d="M64.7802 22.8655C64.7802 22.8655 75.6539 16.4654 92.7146 19.8786L75.9035 31.3999L77.5516 26.083C77.5516 26.083 65.9452 27.9519 57.9087 38.1513L64.7802 22.8682V22.8655Z" fill="#B19D5C"/>
<path d="M88.1783 23.8684L79.5486 29.7805L83.3119 38.1487H94.615L88.1783 23.8684Z" fill="white"/>
<path d="M77.5301 0.249268H63.6931L46.6056 38.1486H57.9087L70.6103 9.89905L74.6339 18.849C77.7046 18.2967 81.4007 17.9776 85.6337 18.227L77.5301 0.249268Z" fill="white"/>
<path d="M2.94724 45.9619C3.29887 45.7447 3.70686 45.6374 4.16586 45.6374C4.62486 45.6374 5.03285 45.7581 5.36032 45.9967C5.69048 46.238 5.924 46.5437 6.0609 46.9191L7.2661 46.348C7.13994 45.9994 6.93326 45.6777 6.64337 45.3854C6.35347 45.0932 5.99916 44.8572 5.58043 44.6802C5.16169 44.5033 4.68928 44.4148 4.16318 44.4148C3.63707 44.4148 3.1405 44.5086 2.69761 44.6963C2.25203 44.884 1.86551 45.1468 1.53267 45.4846C1.19983 45.8224 0.942149 46.2246 0.75694 46.6885C0.571731 47.1523 0.480469 47.6564 0.480469 48.2034C0.480469 48.7504 0.574415 49.2518 0.762309 49.7129C0.950202 50.1741 1.20788 50.5736 1.53804 50.9168C1.86819 51.26 2.25472 51.5255 2.70298 51.7158C3.15124 51.9062 3.63707 52.0027 4.16586 52.0027C4.69464 52.0027 5.16438 51.9142 5.58311 51.7373C6.00184 51.5603 6.35616 51.3244 6.64605 51.0321C6.93594 50.7398 7.14262 50.4181 7.26878 50.0695L6.06358 49.5065C5.92669 49.8738 5.69048 50.1795 5.36301 50.4181C5.03285 50.6594 4.63559 50.7774 4.16854 50.7774C3.70149 50.7774 3.30155 50.6701 2.94992 50.453C2.59829 50.2358 2.32451 49.9355 2.13124 49.5494C1.93798 49.1633 1.83867 48.7155 1.83867 48.2034C1.83867 47.6913 1.9353 47.2435 2.13124 46.8628C2.32451 46.482 2.59829 46.1817 2.94992 45.9646L2.94724 45.9619Z" fill="#B19D5C"/>
<path d="M10.4388 44.5327H9.08598V51.8847H10.4388V44.5327Z" fill="#B19D5C"/>
<path d="M11.9903 45.7151H13.896V51.882H15.2516V45.7151H17.1278V44.5327H11.9903V45.7151Z" fill="#B19D5C"/>
<path d="M23.6208 48.147C23.8597 47.7877 23.9805 47.3587 23.9805 46.86C23.9805 46.3613 23.8732 45.9377 23.6557 45.5918C23.4383 45.2459 23.1377 44.9832 22.7512 44.8035C22.3646 44.6239 21.9218 44.5327 21.4225 44.5327H18.6766V51.8847H20.0294V49.1713H21.2856L22.8129 51.8847H24.3348L22.6465 48.9434C23.0545 48.7718 23.3793 48.509 23.6182 48.1497L23.6208 48.147ZM22.4908 47.4419C22.3915 47.6135 22.2546 47.7475 22.0748 47.8414C21.8976 47.9379 21.6855 47.9835 21.444 47.9835H20.0321V45.7151H21.444C21.6882 45.7151 21.8976 45.7634 22.0748 45.8572C22.2519 45.9538 22.3915 46.0852 22.4908 46.2514C22.5901 46.4176 22.6384 46.6187 22.6384 46.8493C22.6384 47.0799 22.5901 47.2703 22.4908 47.4419Z" fill="#B19D5C"/>
<path d="M27.8941 44.5327L25.3548 51.8847H26.807L27.3411 50.3162H30.1864L30.7098 51.8847H32.1727L29.6334 44.5327H27.8941ZM27.725 49.1203L28.7611 46.0315L29.7891 49.1203H27.725Z" fill="#B19D5C"/>
<path d="M38.1665 44.5327L35.6272 51.8847H37.0794L37.6135 50.3162H40.4588L40.9822 51.8847H42.4451L39.9058 44.5327H38.1665ZM37.9974 49.1203L39.0335 46.0315L40.0615 49.1203H37.9974Z" fill="#B19D5C"/>
<path d="M47.1639 48.922H49.279V48.9515C49.279 49.3268 49.1824 49.6513 48.9891 49.9221C48.7959 50.1956 48.5409 50.4047 48.2241 50.5522C47.9074 50.6996 47.5665 50.7747 47.1961 50.7747C46.7344 50.7747 46.3264 50.6675 45.9721 50.4503C45.6151 50.2331 45.3386 49.9328 45.1373 49.5467C44.936 49.1606 44.8367 48.7128 44.8367 48.2007C44.8367 47.6886 44.9333 47.2408 45.1293 46.8601C45.3225 46.4794 45.5963 46.1791 45.9479 45.9619C46.2996 45.7447 46.7076 45.6374 47.1666 45.6374C47.6256 45.6374 48.0336 45.7581 48.3664 45.9967C48.6992 46.238 48.9354 46.5437 49.0723 46.9191L50.2668 46.348C50.1406 45.9994 49.934 45.6777 49.6441 45.3854C49.3542 45.0932 48.9999 44.8572 48.5811 44.6802C48.1624 44.5033 47.69 44.4148 47.1639 44.4148C46.6378 44.4148 46.1412 44.5086 45.6983 44.6963C45.2527 44.884 44.8662 45.1468 44.5334 45.4846C44.2005 45.8224 43.9429 46.2246 43.7576 46.6885C43.5724 47.1523 43.4812 47.6564 43.4812 48.2034C43.4812 48.7504 43.5751 49.2518 43.763 49.7129C43.9509 50.1741 44.214 50.5736 44.5522 50.9168C44.8904 51.26 45.2849 51.5255 45.7332 51.7158C46.1815 51.9062 46.6673 52.0027 47.1961 52.0027C47.6309 52.0027 48.0523 51.9303 48.4603 51.7855C48.8683 51.6407 49.2361 51.4209 49.5609 51.1233C49.8856 50.8283 50.146 50.461 50.3366 50.0293C50.5272 49.5976 50.6238 49.0962 50.6238 48.5305V47.7905H47.1666V48.9246L47.1639 48.922Z" fill="#B19D5C"/>
<path d="M56.835 49.19C56.835 49.493 56.7679 49.7665 56.6337 50.0078C56.4995 50.2491 56.3143 50.4395 56.0808 50.5762C55.8472 50.7103 55.5761 50.7773 55.2648 50.7773C54.9534 50.7773 54.693 50.7103 54.4541 50.5762C54.2179 50.4422 54.03 50.2518 53.8958 50.0078C53.7616 49.7638 53.6945 49.4903 53.6945 49.19V44.5327H52.3524V49.2597C52.3524 49.7853 52.4786 50.2572 52.7282 50.6701C52.9778 51.0857 53.3214 51.4101 53.7616 51.646C54.1991 51.882 54.7011 52 55.2674 52C55.8338 52 56.3358 51.882 56.7733 51.646C57.2108 51.4101 57.5544 51.083 57.8067 50.6701C58.0563 50.2545 58.1825 49.7853 58.1825 49.2597V44.5327H56.8404V49.19H56.835Z" fill="#B19D5C"/>
<path d="M64.8151 49.2597L61.3096 44.5327H60.252V51.882H61.6048V47.0772L65.0943 51.882H66.1599V44.5327H64.8151V49.2597Z" fill="#B19D5C"/>
<path d="M71.7806 48.922H73.8957V48.9515C73.8957 49.3268 73.7991 49.6513 73.6058 49.9221C73.4126 50.1956 73.1576 50.4047 72.8408 50.5522C72.5241 50.6996 72.1832 50.7747 71.8128 50.7747C71.3511 50.7747 70.9431 50.6675 70.5888 50.4503C70.2318 50.2331 69.9553 49.9328 69.754 49.5467C69.5527 49.1606 69.4534 48.7128 69.4534 48.2007C69.4534 47.6886 69.55 47.2408 69.746 46.8601C69.9392 46.4794 70.213 46.1791 70.5646 45.9619C70.9163 45.7447 71.3243 45.6374 71.7833 45.6374C72.2423 45.6374 72.6503 45.7581 72.9831 45.9967C73.3159 46.238 73.5521 46.5437 73.689 46.9191L74.8835 46.348C74.7573 45.9994 74.5507 45.6777 74.2608 45.3854C73.9709 45.0932 73.6166 44.8572 73.1978 44.6802C72.7791 44.5033 72.3067 44.4148 71.7806 44.4148C71.2545 44.4148 70.7579 44.5086 70.315 44.6963C69.8694 44.884 69.4829 45.1468 69.1501 45.4846C68.8172 45.8224 68.5595 46.2246 68.3743 46.6885C68.1891 47.1523 68.0979 47.6564 68.0979 48.2034C68.0979 48.7504 68.1918 49.2518 68.3797 49.7129C68.5676 50.1741 68.8307 50.5736 69.1689 50.9168C69.5071 51.26 69.9016 51.5255 70.3499 51.7158C70.7982 51.9062 71.284 52.0027 71.8128 52.0027C72.2476 52.0027 72.669 51.9303 73.077 51.7855C73.485 51.6407 73.8528 51.4209 74.1776 51.1233C74.5023 50.8283 74.7627 50.461 74.9533 50.0293C75.1439 49.5976 75.2405 49.0962 75.2405 48.5305V47.7905H71.7833V48.9246L71.7806 48.922Z" fill="#B19D5C"/>
<path d="M83.6178 44.8035C83.234 44.6239 82.7911 44.5327 82.2892 44.5327H79.5325V51.8847H80.8853V49.1713H82.2892C82.7884 49.1713 83.2313 49.0801 83.6125 48.9005C83.9936 48.7208 84.2943 48.4554 84.517 48.1122C84.7371 47.7663 84.8472 47.3507 84.8472 46.8627C84.8472 46.3747 84.7371 45.9404 84.5224 45.5945C84.305 45.2486 84.0044 44.9858 83.6178 44.8062V44.8035ZM83.3521 47.4419C83.2501 47.6135 83.1105 47.7475 82.9334 47.8414C82.7562 47.9379 82.5495 47.9835 82.3106 47.9835H80.888V45.7151H82.3106C82.5468 45.7151 82.7562 45.7634 82.9334 45.8572C83.1105 45.9538 83.2501 46.0852 83.3521 46.2514C83.4541 46.4203 83.5051 46.6187 83.5051 46.8493C83.5051 47.0799 83.4541 47.2703 83.3521 47.4419Z" fill="#B19D5C"/>
<path d="M91.6194 48.147C91.8583 47.7877 91.9791 47.3587 91.9791 46.86C91.9791 46.3613 91.8717 45.9377 91.6543 45.5918C91.4369 45.2459 91.1363 44.9832 90.7497 44.8035C90.3632 44.6239 89.9203 44.5327 89.4211 44.5327H86.6751V51.8847H88.028V49.1713H89.2842L90.8115 51.8847H92.3334L90.6451 48.9434C91.0531 48.7718 91.3778 48.509 91.6167 48.1497L91.6194 48.147ZM90.4894 47.4419C90.3901 47.6135 90.2532 47.7475 90.0733 47.8414C89.8962 47.9379 89.6841 47.9835 89.4425 47.9835H88.0307V45.7151H89.4425C89.6868 45.7151 89.8962 45.7634 90.0733 45.8572C90.2505 45.9538 90.3901 46.0852 90.4894 46.2514C90.5887 46.4176 90.637 46.6187 90.637 46.8493C90.637 47.0799 90.5887 47.2703 90.4894 47.4419Z" fill="#B19D5C"/>
<path d="M95.8926 44.5327L93.3534 51.8847H94.8055L95.3397 50.3162H98.1849L98.7083 51.8847H100.171L97.632 44.5327H95.8926ZM95.7235 49.1203L96.7596 46.0315L97.7877 49.1203H95.7235Z" fill="#B19D5C"/>
<path d="M100.633 45.7151H102.539V51.882H103.892V45.7151H105.77V44.5327H100.633V45.7151Z" fill="#B19D5C"/>
<path d="M108.771 44.5327L106.232 51.8847H107.684L108.218 50.3162H111.064L111.587 51.8847H113.05L110.511 44.5327H108.771ZM108.605 49.1203L109.641 46.0315L110.669 49.1203H108.605Z" fill="#B19D5C"/>
<path d="M118.34 47.8521L115.893 44.5327H114.599V51.882H115.954V46.7957L118.236 49.9086H118.394L120.665 46.8868V51.882H122.018V44.5327H120.735L118.34 47.8521Z" fill="#B19D5C"/>
<path d="M126.109 44.5327L123.569 51.8847H125.021L125.556 50.3162H128.401L128.924 51.8847H130.387L127.848 44.5327H126.109ZM125.939 49.1203L126.976 46.0315L128.004 49.1203H125.939Z" fill="#B19D5C"/>
<path d="M139.379 48.147C139.618 47.7877 139.739 47.3587 139.739 46.86C139.739 46.3613 139.631 45.9377 139.414 45.5918C139.197 45.2459 138.896 44.9832 138.509 44.8035C138.123 44.6239 137.68 44.5327 137.181 44.5327H134.435V51.8847H135.788V49.1713H137.044L138.571 51.8847H140.093L138.405 48.9434C138.813 48.7718 139.138 48.509 139.376 48.1497L139.379 48.147ZM138.246 47.4419C138.147 47.6135 138.01 47.7475 137.83 47.8414C137.653 47.9379 137.441 47.9835 137.2 47.9835H135.788V45.7151H137.2C137.444 45.7151 137.653 45.7634 137.83 45.8572C138.008 45.9538 138.147 46.0852 138.246 46.2514C138.346 46.4176 138.394 46.6187 138.394 46.8493C138.394 47.0799 138.346 47.2703 138.246 47.4419Z" fill="#B19D5C"/>
<path d="M141.704 51.882H146.602V50.6996H143.057V48.7959H146.406V47.6001H143.057V45.7151H146.602V44.5327H141.704V51.882Z" fill="#B19D5C"/>
<path d="M152.062 47.8521L149.617 44.5327H148.323V51.882H149.676V46.7957L151.957 49.9086H152.116L154.386 46.8868V51.882H155.739V44.5327H154.456L152.062 47.8521Z" fill="#B19D5C"/>
<path d="M159.237 44.5327H157.884V51.8847H159.237V44.5327Z" fill="#B19D5C"/>
<path d="M160.788 45.7151H162.694V51.882H164.047V45.7151H165.923V44.5327H160.788V45.7151Z" fill="#B19D5C"/>
<path d="M168.927 44.5327L166.387 51.8847H167.84L168.374 50.3162H171.219L171.742 51.8847H173.205L170.666 44.5327H168.927ZM168.758 49.1203L169.794 46.0315L170.822 49.1203H168.758Z" fill="#B19D5C"/>
<path d="M179.317 49.2597L175.812 44.5327H174.754V51.882H176.107V47.0772L179.594 51.882H180.662V44.5327H179.317V49.2597Z" fill="#B19D5C"/>
<path d="M186.253 47.8173L184.9 47.3936C184.629 47.3078 184.431 47.1872 184.296 47.0344C184.165 46.8789 184.098 46.6992 184.098 46.4954C184.098 46.3185 184.146 46.1603 184.24 46.0209C184.337 45.8814 184.468 45.7769 184.64 45.6991C184.812 45.624 185.008 45.5865 185.233 45.5865C185.609 45.5865 185.942 45.6884 186.237 45.8922C186.53 46.0959 186.744 46.3801 186.884 46.7394L188.001 46.2461C187.869 45.8787 187.67 45.557 187.402 45.2835C187.136 45.01 186.817 44.7955 186.449 44.6427C186.081 44.4872 185.676 44.4121 185.233 44.4121C184.753 44.4121 184.326 44.5033 183.953 44.6829C183.58 44.8626 183.29 45.1146 183.078 45.4363C182.866 45.7581 182.761 46.1308 182.761 46.5517C182.761 47.0397 182.909 47.458 183.201 47.8092C183.494 48.1605 183.929 48.4259 184.5 48.6029L185.912 49.056C186.17 49.1418 186.361 49.2544 186.489 49.3912C186.618 49.5279 186.683 49.7076 186.683 49.9247C186.683 50.1097 186.634 50.2679 186.54 50.3993C186.444 50.5307 186.31 50.6353 186.135 50.7103C185.961 50.7854 185.754 50.823 185.518 50.823C185.096 50.823 184.718 50.7023 184.382 50.4637C184.047 50.2224 183.789 49.8926 183.612 49.4716L182.485 49.9542C182.624 50.3618 182.836 50.7184 183.121 51.0241C183.408 51.3297 183.749 51.5683 184.149 51.7399C184.546 51.9115 184.975 51.9973 185.437 51.9973C185.95 51.9973 186.398 51.9062 186.779 51.7212C187.16 51.5362 187.461 51.2841 187.678 50.9624C187.896 50.6406 188.003 50.2679 188.003 49.847C188.003 49.3536 187.856 48.938 187.563 48.6029C187.27 48.2677 186.83 48.005 186.245 47.8146L186.253 47.8173Z" fill="#B19D5C"/>
<path d="M191.299 44.5327H189.947V51.8847H191.299V44.5327Z" fill="#B19D5C"/>
</g>
<defs>
<clipPath id="clip0_43_700">
<rect width="192" height="52" fill="white"/>
</clipPath>
</defs>
</svg>
